<svg xmlns="http://www.w3.org/2000/svg" xmlns:xlink="http://www.w3.org/1999/xlink" width="427" height="384" viewBox="0 0 427 384"><defs><path id="zfkia" d="M691.33 2640.5c54.69.69 109.58-2.19 164.35.79 33.69 40.91 55.89 90.25 85.61 134.14 32.99-43.5 62.2-89.56 92.92-134.64 53.8-.89 107.59-.5 161.4-.4-42.72 64.6-87.78 127.8-131.57 191.7-12.68 19.72-29.72 37.45-36.66 60.14 66.77 103.04 138 203.59 208.05 304.55v6.54c-55.89.68-111.65.68-167.53.1-41.01-68.36-82.23-136.52-123.23-204.89-46.56 65.3-84.11 136.52-126.31 204.68-54.79.89-109.58 1-164.36-.21 67.66-106.89 144.93-208.05 210.52-315.93-56-83.31-115.73-164.25-173.2-246.58z"/></defs><g><g clip-path="url(#clip-78B05104-2B2F-4696-A5ED-99F8A2ACB03A)" opacity=".15" transform="translate(-732 -2702)"><use fill="#fff" xlink:href="#zfkia"/></g></g></svg>